<mxfile host="app.diagrams.net" modified="2023-07-14T08:18:18.552Z" agent="Mozilla/5.0 (Windows NT 10.0; Win64; x64; rv:109.0) Gecko/20100101 Firefox/115.0" version="21.6.2" etag="G1Gc57JjVeV7L8KhySH3" type="github">
  <diagram name="Page-1" id="hZKpVQX9FaayItFccPNM">
    <mxGraphModel>
      <root>
        <mxCell id="0" />
        <mxCell id="1" parent="0" />
      </root>
    </mxGraphModel>
  </diagram>
</mxfile>
